<svg version="1" xmlns="http://www.w3.org/2000/svg" width="533.333" height="533.333" viewBox="0 0 400.000000 400.000000"><path d="M46.2 57.8c-1 .7-1.2 30.5-1 145.8l.3 144.9 23.7.3 23.8.2.2-81.5c.2-46.6.7-81.6 1.2-81.8 1.4-.3 1.8.7 15.1 41.8 7 21.4 15.5 47.5 19 58 3.5 10.4 9.6 29 13.6 41.2l7.3 22.3H194l-.2-145.8-.3-145.7-21.5-.3c-11.8-.1-22.5 0-23.7.3l-2.3.5v76c0 61-.3 76-1.3 76-.8 0-7.6-19.2-18.1-51.3-29-87.9-32.8-99.2-33.8-100.5-.8-.9-6.7-1.2-23.2-1.2-12.1 0-22.7.4-23.4.8zM220.7 57.7c-.9.8-.9 42.5-.1 44.7.5 1.4 5.2 1.6 42.5 1.6 23 0 41.9.1 41.9.2 0 .2-.7 2.5-1.6 5.3-.8 2.7-4.9 16.7-8.9 31-4.1 14.3-7.9 27.3-8.4 29-.6 1.6-5.4 18.1-10.7 36.5-5.3 18.4-13.2 45.9-17.6 61-15.1 52.4-22.8 79.5-22.8 80.8 0 1 5.5 1.2 25.7 1l25.6-.3 2.4-7.5c1.2-4.1 4.6-15.8 7.4-26 2.8-10.2 6.6-23.7 8.5-30 3.2-11.3 13.6-48 29.5-105 4.4-15.7 9.3-32.8 10.9-38 1.5-5.2 4.9-17.2 7.4-26.5l4.7-17-.3-20.5-.3-20.5-67.6-.3c-37.1-.1-67.9.1-68.2.5z"/></svg>